<svg version="1.1" xmlns="http://www.w3.org/2000/svg" viewBox="0 0 928.3752243349143 193" width="928.3752243349143" height="193">
  <!-- svg-source:excalidraw -->
  
  <defs>
    <style>
      @font-face {
        font-family: "Virgil";
        src: url("https://excalidraw.com/Virgil.woff2");
      }
      @font-face {
        font-family: "Cascadia";
        src: url("https://excalidraw.com/Cascadia.woff2");
      }
    </style>
  </defs>
  <g stroke-linecap="round" transform="translate(10 45.39997863769531) rotate(0 59.60002136230469 26)"><path d="M0.72 1.03 C25.5 2.71, 53.58 1.38, 121.13 -0.11 M0.75 -0.1 C36.54 -0.31, 75.53 0.21, 118.59 0.26 M119.4 1.98 C117.61 12.83, 117.99 28.67, 119.87 53.77 M120.19 0.78 C118.98 20.56, 120.24 40.98, 119.42 51.61 M118.72 51.64 C93.23 50.73, 68.11 51.82, 1.1 50.67 M118.84 52.87 C85.82 50.83, 53.5 51.94, -0.55 51.07 M1.68 51.55 C0.65 35.6, -0.79 19.26, 1.7 -0.37 M-0.73 52.48 C-0.03 39.56, 0.57 28.42, -0.02 0.35" stroke="#000000" stroke-width="1" fill="none"></path></g><g stroke-linecap="round" transform="translate(238.80001831054688 42.99998474121094) rotate(0 63.199981689453125 24.800010681152344)"><path d="M-0.01 0.14 C50.46 2.86, 99.25 1.86, 125.58 -0.76 M-0.65 0.81 C28.52 -0.5, 56.21 0.62, 126.21 0.99 M126.01 -1.9 C128.23 17.99, 124.94 40.37, 127.96 48.91 M125.81 0.35 C126.67 19.57, 127.18 37.17, 126.12 50.36 M127.39 51.03 C87.39 47.62, 50.95 50.11, 1.7 48.51 M126.29 50.31 C93.49 49.81, 59.67 49.85, 0.59 50.27 M1.97 50.53 C-1.48 38.62, 0.05 25.37, 1.53 -1.69 M0.06 49.67 C1.22 34.69, -0.61 18.7, 0.31 0.24" stroke="#000000" stroke-width="1" fill="none"></path></g><g stroke-linecap="round" transform="translate(453.1999816894531 39.79998779296875) rotate(0 88.4000244140625 25.600006103515625)"><path d="M1.52 -0.02 C62.8 -0.7, 126.02 1.92, 175.59 -1.23 M-0.54 -0.34 C53.88 -2.05, 108.34 -0.79, 177.49 0.9 M178.14 -1.18 C175.92 16.23, 179.26 36.4, 174.98 52.18 M175.95 0.04 C175.95 13.73, 176.78 29.31, 177.64 51.36 M177.27 50.77 C142.49 51.39, 107.49 50.07, 0.07 53.16 M176.73 51.78 C123.89 49.66, 71.85 49.64, 0.32 50.44 M-1.25 53.14 C1.53 37, -1.19 21.43, 1.11 -1.86 M0.86 50.39 C1.14 34.95, 1.04 20.56, 0.47 -0.24" stroke="#000000" stroke-width="1" fill="none"></path></g><g stroke-linecap="round" transform="translate(680.4000549316406 36.60002136230469) rotate(0 84.79998779296875 25.99999237060547)"><path d="M-1.68 0.07 C63.39 -1.57, 122.62 -3.37, 169.46 1.16 M0.07 0.32 C44.97 -0.37, 90.55 0, 168.98 0.97 M171.52 1.11 C168.16 18.45, 169.24 35.9, 171.32 50.37 M170.15 0.47 C169.01 20.14, 169.1 41.16, 169.67 52.89 M169.93 51.9 C127.39 50.85, 82.82 51.67, 1.48 53.27 M168.71 52.93 C132.7 51.26, 97.14 50.8, -0.98 51.39 M-1.9 52.32 C0.1 38.52, 0.68 20.97, 1.9 -1.51 M-0.13 51.53 C0.19 33.74, -0.16 16.07, -0.7 -0.91" stroke="#000000" stroke-width="1" fill="none"></path></g><g stroke-linecap="round"><g transform="translate(24.399993896484375 143.79998779296875) rotate(0 0.8689071161672643 -20.963814722411342)"><path d="M1.01 -1.17 C0.99 -8.49, -0.31 -35.78, -0.22 -42.76 M0.08 0.83 C0.43 -5.81, 1.77 -34.27, 1.96 -41.41" stroke="#000000" stroke-width="1" fill="none"></path></g><g transform="translate(24.399993896484375 143.79998779296875) rotate(0 0.8689071161672643 -20.963814722411342)"><path d="M6.49 -22.92 C5.76 -25.75, 3.43 -33.28, 2.98 -42.73 M9.3 -21.56 C6.24 -29.5, 4.46 -36.05, 1.19 -41.23" stroke="#000000" stroke-width="1" fill="none"></path></g><g transform="translate(24.399993896484375 143.79998779296875) rotate(0 0.8689071161672643 -20.963814722411342)"><path d="M-8 -23.48 C-4.52 -26.27, -2.64 -33.63, 2.98 -42.73 M-5.19 -22.12 C-2.93 -29.94, 0.61 -36.29, 1.19 -41.23" stroke="#000000" stroke-width="1" fill="none"></path></g></g><g stroke-linecap="round"><g transform="translate(130.80001831054688 67.79998779296875) rotate(0 51.22992557202463 -0.43421700914390726)"><path d="M0.39 -0.95 C17.69 -1.36, 86.22 -1.78, 103.33 -2.04 M-0.87 1.17 C16.33 0.88, 85.27 -0.26, 102.45 -0.74" stroke="#000000" stroke-width="1" fill="none"></path></g><g transform="translate(130.80001831054688 67.79998779296875) rotate(0 51.22992557202463 -0.43421700914390726)"><path d="M72.91 10.34 C80.93 6.95, 87.34 3.68, 101.07 0.5 M74.51 10.65 C82.09 7.16, 86.91 4.37, 103.22 -0.18" stroke="#000000" stroke-width="1" fill="none"></path></g><g transform="translate(130.80001831054688 67.79998779296875) rotate(0 51.22992557202463 -0.43421700914390726)"><path d="M72.47 -10.18 C80.68 -8.27, 87.21 -6.24, 101.07 0.5 M74.08 -9.87 C81.81 -8.43, 86.73 -6.29, 103.22 -0.18" stroke="#000000" stroke-width="1" fill="none"></path></g></g><g stroke-linecap="round"><g transform="translate(365.1999816894531 66.99998474121094) rotate(0 42.23385454695671 0.0052926947835061355)"><path d="M0.76 -0.07 C14.72 0.01, 70.92 1.04, 84.77 1.25 M-0.3 -1.15 C13.41 -1.5, 69.38 -0.67, 83.8 -0.64" stroke="#000000" stroke-width="1" fill="none"></path></g><g transform="translate(365.1999816894531 66.99998474121094) rotate(0 42.23385454695671 0.0052926947835061355)"><path d="M55.4 9.32 C67.11 3.77, 77.9 1.43, 84.41 0.56 M55.84 8.51 C67.75 6.3, 78.7 0.72, 84.15 -1.31" stroke="#000000" stroke-width="1" fill="none"></path></g><g transform="translate(365.1999816894531 66.99998474121094) rotate(0 42.23385454695671 0.0052926947835061355)"><path d="M55.58 -11.2 C67.35 -8.84, 78.07 -3.27, 84.41 0.56 M56.02 -12.01 C67.99 -6.03, 78.87 -3.41, 84.15 -1.31" stroke="#000000" stroke-width="1" fill="none"></path></g></g><g stroke-linecap="round"><g transform="translate(630.0000305175781 58.99998474121094) rotate(0 26.836607755720593 -0.5087574997732105)"><path d="M1.09 0.28 C9.74 0.24, 42.84 0.41, 51.18 0.28 M0.21 -0.62 C9.29 -1.02, 44.57 -1.54, 53.47 -1.28" stroke="#000000" stroke-width="1" fill="none"></path></g><g transform="translate(630.0000305175781 58.99998474121094) rotate(0 26.836607755720593 -0.5087574997732105)"><path d="M29.47 6.17 C36.7 3.73, 41.29 2.76, 53.31 -1.13 M29.78 6.59 C35.69 5.31, 42.77 2.14, 53.49 -1.7" stroke="#000000" stroke-width="1" fill="none"></path></g><g transform="translate(630.0000305175781 58.99998474121094) rotate(0 26.836607755720593 -0.5087574997732105)"><path d="M29.53 -11.62 C36.83 -9.74, 41.41 -6.38, 53.31 -1.13 M29.84 -11.2 C35.61 -7.72, 42.67 -6.15, 53.49 -1.7" stroke="#000000" stroke-width="1" fill="none"></path></g></g><g stroke-linecap="round"><g transform="translate(852.4000549316406 58.99998474121094) rotate(0 32.747645476358 -0.1652569402009334)"><path d="M-0.48 0.59 C10.14 0.29, 52.98 -0.77, 63.79 -0.92 M1.47 -0.15 C12.45 -0.4, 55.66 -0.03, 65.98 0.14" stroke="#000000" stroke-width="1" fill="none"></path></g><g transform="translate(852.4000549316406 58.99998474121094) rotate(0 32.747645476358 -0.1652569402009334)"><path d="M38.65 8.4 C44.71 6.45, 54.36 3.11, 67.18 -0.45 M36.92 10.62 C46.02 6.93, 52.72 4.61, 66.62 -0.78" stroke="#000000" stroke-width="1" fill="none"></path></g><g transform="translate(852.4000549316406 58.99998474121094) rotate(0 32.747645476358 -0.1652569402009334)"><path d="M38.88 -12.12 C45.02 -7.81, 54.6 -4.89, 67.18 -0.45 M37.15 -9.9 C46.16 -8.03, 52.81 -4.79, 66.62 -0.78" stroke="#000000" stroke-width="1" fill="none"></path></g></g><g transform="translate(866.7999572753906 10) rotate(0 25.5 12.5)"><text x="0" y="18" font-family="Virgil, Segoe UI Emoji" font-size="20px" fill="#000000" text-anchor="start" style="white-space: pre;" direction="ltr">NULL</text></g><g transform="translate(18 158) rotate(0 23 12.5)"><text x="0" y="18" font-family="Virgil, Segoe UI Emoji" font-size="20px" fill="#000000" text-anchor="start" style="white-space: pre;" direction="ltr">head</text></g><g stroke-linecap="round"><g transform="translate(81.19998168945312 46.19999694824219) rotate(0 0.6102940717872798 26.504914968088286)"><path d="M-0.29 -1.18 C-0.34 7.77, -0.89 45, -0.67 54.19 M1.76 0.82 C2.14 9.36, 1.85 43.28, 1.68 52.37" stroke="#000000" stroke-width="1" fill="none"></path></g></g><g stroke-linecap="round"><g transform="translate(319.6000061035156 45.399993896484375) rotate(0 -0.9533441661956772 23.05598956275732)"><path d="M-0.1 0.04 C-0.25 7.99, -0.96 39.41, -1.07 47.1 M-1.61 -0.99 C-1.85 6.67, -1.83 37.29, -1.74 45.34" stroke="#000000" stroke-width="1" fill="none"></path></g></g><g stroke-linecap="round"><g transform="translate(569.9999694824219 38.99998474121094) rotate(0 -0.5353630520776278 27.501632632799442)"><path d="M-0.22 0.96 C-0.12 10.1, 0.55 45.77, 0.73 54.59 M-1.8 0.41 C-1.87 9.26, -0.57 43.84, -0.25 52.98" stroke="#000000" stroke-width="1" fill="none"></path></g></g><g stroke-linecap="round"><g transform="translate(798.7999572753906 36.60002136230469) rotate(0 -0.5252394403829612 28.05004219301044)"><path d="M0.26 -1.07 C0.22 8.53, 0.34 47.75, 0.24 57.17 M-1.07 0.98 C-1.35 10.31, -1.51 46.42, -1 55.67" stroke="#000000" stroke-width="1" fill="none"></path></g></g><g transform="translate(28.399993896484375 57.99998474121094) rotate(0 6.5 12.5)"><text x="0" y="18" font-family="Virgil, Segoe UI Emoji" font-size="20px" fill="#000000" text-anchor="start" style="white-space: pre;" direction="ltr">4</text></g><g transform="translate(268.3999938964844 53.99998474121094) rotate(0 9 12.5)"><text x="0" y="18" font-family="Virgil, Segoe UI Emoji" font-size="20px" fill="#000000" text-anchor="start" style="white-space: pre;" direction="ltr">15</text></g><g transform="translate(493.1999816894531 49.19999694824219) rotate(0 5 12.5)"><text x="0" y="18" font-family="Virgil, Segoe UI Emoji" font-size="20px" fill="#000000" text-anchor="start" style="white-space: pre;" direction="ltr">7</text></g><g transform="translate(726.7999572753906 42.79998779296875) rotate(0 13 12.5)"><text x="0" y="18" font-family="Virgil, Segoe UI Emoji" font-size="20px" fill="#000000" text-anchor="start" style="white-space: pre;" direction="ltr">40</text></g></svg>